<svg xmlns="http://www.w3.org/2000/svg" xmlns:xlink="http://www.w3.org/1999/xlink" width="685.67004" height="428.52452" viewBox="0 0 685.67004 428.52452">
  <path d="M283.49664,428H69.91658c-8.5293,0-15.46826-6.93945-15.46826-15.46875V15.46826c0-8.5293,6.93896-15.46826,15.46826-15.46826h213.58006c8.5293,0,15.46826,6.93896,15.46826,15.46826V412.53125c0,8.5293-6.93896,15.46875-15.46826,15.46875ZM" fill="#ffffff" />
  <path d="M283.49664,428H69.91658c-8.5293,0-15.46826-6.93945-15.46826-15.46875V15.46826c0-8.5293,6.93896-15.46826,15.46826-15.46826h213.58006c8.5293,0,15.46826,6.93896,15.46826,15.46826V412.53125c0,8.5293-6.93896,15.46875-15.46826,15.46875ZM69.91658,2c-7.42627,0-13.46826,6.04199-13.46826,13.46826V412.53125c0,7.42676,6.04199,13.46875,13.46826,13.46875h213.58006c7.42627,0,13.46826-6.04199,13.46826-13.46875V15.46826c0-7.42627-6.04199-13.46826-13.46826-13.46826H69.91658Z" fill="#3f3d56" />
  <rect x="53.85261" y="176.50562" width="245.70787" height="63.82022" fill="#107f2f" />
  <rect x="146.39194" y="1" width="63.82022" height="426" fill="#107f2f" />
  <path d="M212.57114,235.52103c.45195-1.75784,.72131-3.58492,.78685-5.4678l79.82048-72.69366-68.60675-33.50562-30.23698,80.63196c-2.06674-.53998-4.22375-.85667-6.45964-.85667-1.18709,0-2.34602,.10925-3.49007,.26605l-30.01555-80.04133-68.60674,33.50562,76.68331,69.83658c-.04947,.64944-.09904,1.29909-.09904,1.96117,0,2.20132,.30812,4.3259,.83203,6.36371-47.0048,14.69016-66.24776,59.05203-66.24776,59.05203l59.03371,47.86517c-3.52084-35.20874,17.98061-71.25464,29.6046-87.86917,.76054,.06818,1.52715,.11636,2.30553,.11636s1.54488-.0482,2.30553-.11636c11.62399,16.61453,33.12544,52.66046,29.6046,87.86917l59.03371-47.86517s-19.24295-44.36185-66.24776-59.05202l-.00005-.00002Z" isolation="isolate" opacity=".2" />
  <path d="M221.23885,325.19043c-.68848,0-1.38232-.14941-2.0376-.45605-1.65723-.77344-2.7041-2.38574-2.73291-4.20801-.48389-30.86719-18.08447-61.16211-28.5332-76.47266-.69775-1.02246-1.90283-1.63281-3.22412-1.63281h-.00586c-1.36963,0-2.57471,.61035-3.27246,1.63281-10.44824,15.31055-28.04883,45.60547-28.5332,76.47266-.02881,1.82129-1.07568,3.43457-2.73291,4.20801-1.67383,.78418-3.60449,.54688-5.0376-.61426l-49.06738-39.78516c-1.75146-1.4209-2.26562-3.90918-1.22217-5.91797,4.95996-9.55176,24.05518-41.74512,61.53027-54.9834,1.67236-.59082,2.68799-2.25586,2.46924-4.0498-.12158-1.00195-.18311-2.00781-.18311-2.99023,.00244-1.17188-.44531-2.23633-1.22852-2.94922l-70.54199-64.24414c-1.16992-1.06543-1.73438-2.63672-1.51074-4.20312,.22412-1.56641,1.20703-2.91699,2.62891-3.61133l58.73291-28.68262c1.20459-.58887,2.61035-.64111,3.85791-.146,1.24658,.49609,2.23145,1.50146,2.70264,2.75732l27.23242,72.62012c.56201,1.49902,2.00342,2.47754,3.63965,2.43652,1.23389-.02832,2.48535,.04297,3.73291,.20508,1.76074,.23535,3.42236-.75781,4.03857-2.4043l27.32178-72.85742c.47119-1.25586,1.45605-2.26123,2.70264-2.75732,1.24658-.49463,2.65381-.44238,3.85791,.146l58.73192,28.68262c1.42236,.69434,2.40576,2.04492,2.62939,3.6123,.22412,1.56543-.34082,3.13672-1.51074,4.20215l-73.90527,67.30762c-.68896,.62695-1.11768,1.4834-1.20752,2.41016-.01953,.2002-.04053,.40039-.06445,.59961h0c-.20264,1.68555,.84473,3.33105,2.49023,3.91211,37.4834,13.23535,56.58154,45.43457,61.54248,54.9873,1.04346,2.00879,.5293,4.49707-1.22217,5.91797l-49.06787,39.78516c-.87207,.70703-1.9292,1.07031-3,1.07031h.00002Z" fill="#107f2f" />
  <path d="M635.65582,428.3916h-206.06299c-8.5293,0-15.46875-6.93945-15.46875-15.46875v-104.8457c0-8.5293,6.93945-15.46875,15.46875-15.46875h206.06299c8.5293,0,15.46826,6.93945,15.46826,15.46875v104.8457c0,8.5293-6.93896,15.46875-15.46826,15.46875Z" fill="#ffffff" />
  <path d="M635.65582,428.3916h-206.06299c-8.5293,0-15.46875-6.93945-15.46875-15.46875v-104.8457c0-8.5293,6.93945-15.46875,15.46875-15.46875h206.06299c8.5293,0,15.46826,6.93945,15.46826,15.46875v104.8457c0,8.5293-6.93896,15.46875-15.46826,15.46875Zm-206.06299-133.7832c-7.42676,0-13.46875,6.04199-13.46875,13.46875v104.8457c0,7.42676,6.04199,13.46875,13.46875,13.46875h206.06299c7.42627,0,13.46826-6.04199,13.46826-13.46875v-104.8457c0-7.42676-6.04199-13.46875-13.46826-13.46875h-206.06299Z" fill="#3f3d56" />
  <rect x="518.10162" y="292.72849" width="35.20599" height="135.54306" fill="#107f2f" />
  <rect x="415.12411" y="343.77719" width="235.00003" height="35.20599" fill="#107f2f" />
  <path d="M525.7522,383.28445c.96973,.2493,1.9776,.39789,3.0163,.43405l40.10095,44.03241,18.48315-37.84644-44.48004-16.68002c.29785-1.14011,.4726-2.32999,.4726-3.56342,0-.65485-.06024-1.29416-.14679-1.92526l44.15424-16.55786-18.48315-37.84644-38.52484,42.30182c-.35828-.02728-.71661-.05463-1.08185-.05463-1.21436,0-2.38635,.16998-3.5105,.45898-8.10376-25.92987-32.57565-36.54514-32.57565-36.54514l-26.40448,32.56555c19.42267-1.94226,39.30713,9.91888,48.47244,16.33118-.0376,.41956-.06421,.84244-.06421,1.27182s.02661,.85223,.06421,1.27182c-9.16528,6.41229-29.04977,18.27341-48.47244,16.33118l26.40448,32.56555s24.47189-10.61526,32.57565-36.54514l-.00006-.00003Z" isolation="isolate" opacity=".2" />
  <path d="M570.31549,421.69629c-.79736,0-1.56396-.33398-2.10938-.93262l-37.13184-40.77246c-.30615-.33594-.75195-.54883-1.25537-.59961l-.16016-.0166c-.90723-.10059-1.73438,.38965-2.01855,1.19531-7.3291,20.7793-25.17236,31.35449-30.46631,34.10059-1.19287,.62109-2.67432,.30859-3.52344-.74121l-21.94922-27.07129c-.6958-.85742-.83643-2.01367-.36768-3.01758,.4624-.98926,1.42383-1.61328,2.50977-1.62988,16.96875-.26172,33.6416-9.94727,42.06982-15.69727,.50684-.34668,.80957-.94434,.80859-1.59863,.00098-.68359-.30127-1.28125-.80859-1.62695-8.42676-5.75-25.09766-15.43555-42.07031-15.69727-1.08594-.0166-2.04736-.6416-2.50928-1.63086-.46875-1.00391-.32812-2.16016,.36768-3.01758l21.94971-27.07129c.8501-1.04688,2.33154-1.35938,3.52246-.74219,5.29346,2.74707,23.13281,13.32129,30.46338,34.09375,.28418,.80469,1.0957,1.30664,1.9126,1.20801,.88916-.1123,1.7749-.1377,2.63086-.07422l36.02588-39.55859c.6377-.7002,1.57861-1.03906,2.51514-.90332,.9375,.13477,1.74512,.72266,2.16016,1.57324l15.82471,32.40234c.35254,.72168,.38379,1.56348,.08691,2.30957-.29688,.74512-.89844,1.33398-1.6499,1.61523l-40.06201,15.02344c-.73682,.27637-1.21826,.99707-1.19824,1.79199l.00342,.29004c0,.62305-.04346,1.25684-.12891,1.88379-.10986,.80664,.39307,1.60938,1.1958,1.91113l40.19043,15.07129c.75146,.28223,1.35303,.87109,1.6499,1.61719,.29639,.74609,.26465,1.58691-.0874,2.30859l-15.82471,32.40234c-.41504,.85059-1.22266,1.43848-2.16016,1.57227-.13525,.01953-.271,.0293-.40576,.0293Z" fill="#107f2f" />
</svg>