<svg xmlns="http://www.w3.org/2000/svg" xmlns:xlink="http://www.w3.org/1999/xlink" data-name="Layer 1" width="576.67004" height="576.44344" viewBox="0 80 600.67004 576.44344">
  <path d="M524.442,262.90072,406.8168,289.36394a12.20139,12.20139,0,0,0-9.215,14.56508l32.25406,143.36459,138.20269-31.09275a6.05643,6.05643,0,0,0,2.99313-1.65173L539.00708,272.11575A12.20141,12.20141,0,0,0,524.442,262.90072Z" transform="translate(-167.16498 -161.77828)" fill="#e6e6e6" />
  <path d="M481.71486,282.64153l-64.46158,14.50252a11.11125,11.11125,0,0,0-8.39446,13.26082l30.325,134.79013,122.744-27.61485-22.08437-98.16179A48.695,48.695,0,0,0,481.71486,282.64153Z" transform="translate(-167.16498 -161.77828)" fill="#fff" />
  <path d="M538.32333,410.31393l-80.92146,18.20566a2.70338,2.70338,0,1,0,1.18675,5.2749l80.92146-18.20565a2.70339,2.70339,0,1,0-1.18675-5.27491Z" transform="translate(-167.16498 -161.77828)" fill="#e4e4e4" />
  <path d="M535.97648,399.88253,455.055,418.08818a2.70614,2.70614,0,0,0,1.188,5.28029l80.92146-18.20565a2.70614,2.70614,0,1,0-1.188-5.28029Z" transform="translate(-167.16498 -161.77828)" fill="#e4e4e4" />
  <path d="M487.78753,399.7703l-35.07815,7.89186a2.70337,2.70337,0,1,0,1.18674,5.2749l35.07816-7.89185a2.70339,2.70339,0,1,0-1.18675-5.27491Z" transform="translate(-167.16498 -161.77828)" fill="#e4e4e4" />
  <path d="M528.71675,367.61405l-80.92147,18.20566a2.70614,2.70614,0,0,0,1.188,5.28029l80.92146-18.20565a2.70614,2.70614,0,1,0-1.188-5.2803Z" transform="translate(-167.16498 -161.77828)" fill="#e4e4e4" />
  <path d="M526.37111,357.188l-80.92147,18.20566a2.70338,2.70338,0,1,0,1.18675,5.2749l80.92146-18.20565a2.70338,2.70338,0,1,0-1.18674-5.27491Z" transform="translate(-167.16498 -161.77828)" fill="#e4e4e4" />
  <path d="M478.18094,357.07042l-35.07815,7.89186a2.70614,2.70614,0,0,0,1.188,5.28029l35.07815-7.89186a2.70614,2.70614,0,1,0-1.188-5.28029Z" transform="translate(-167.16498 -161.77828)" fill="#e4e4e4" />
  <path d="M519.11016,324.91417l-80.92147,18.20566a2.70614,2.70614,0,0,0,1.188,5.28029l80.92146-18.20565a2.70614,2.70614,0,1,0-1.188-5.2803Z" transform="translate(-167.16498 -161.77828)" fill="#e6e6e6" />
  <path d="M516.76452,314.48815l-80.92147,18.20566a2.70614,2.70614,0,0,0,1.188,5.28029l80.92146-18.20565a2.70614,2.70614,0,1,0-1.188-5.2803Z" transform="translate(-167.16498 -161.77828)" fill="#e6e6e6" />
  <path d="M468.57435,314.37054,433.4962,322.2624a2.70614,2.70614,0,0,0,1.188,5.28029l35.07815-7.89186a2.70614,2.70614,0,1,0-1.188-5.28029Z" transform="translate(-167.16498 -161.77828)" fill="#e6e6e6" />
  <path d="M289.77873,429.24128a2.89533,2.89533,0,0,0-2.89209,2.89209V731.1807a2.89574,2.89574,0,0,0,2.89209,2.89258h374.9458a2.89537,2.89537,0,0,0,2.8916-2.89258V480.13679a2.89534,2.89534,0,0,0-2.8916-2.89258H449.5302a8.76523,8.76523,0,0,1-5.90674-2.28223l-48.37891-43.95752a6.77,6.77,0,0,0-4.5625-1.76318Z" transform="translate(-167.16498 -161.77828)" fill="#3f3d56" />
  <path d="M737.24238,351.02466,536.47946,264.71345a22.11557,22.11557,0,0,0-29.0187,11.56928l-105.19833,244.695,235.8847,101.41061a10.97749,10.97749,0,0,0,6.14956.76065l104.515-243.10564A22.11562,22.11562,0,0,0,737.24238,351.02466Z" transform="translate(-167.16498 -161.77828)" fill="#e6e6e6" />
  <path d="M653.5401,334.53467,543.51692,287.23394a20.13964,20.13964,0,0,0-26.4269,10.5284L418.18347,527.82247l209.49968,90.06727L699.71249,450.347A88.26188,88.26188,0,0,0,653.5401,334.53467Z" transform="translate(-167.16498 -161.77828)" fill="#fff" />
  <path d="M600.77576,582.11364l-138.117-59.3787a4.9,4.9,0,1,0-3.87063,9.00322l138.117,59.3787a4.9,4.9,0,1,0,3.87063-9.00322Z" transform="translate(-167.16498 -161.77828)" fill="#e4e4e4" />
  <path d="M608.43014,564.30928l-138.117-59.3787a4.905,4.905,0,0,0-3.87458,9.01242l138.117,59.3787a4.905,4.905,0,1,0,3.87459-9.01242Z" transform="translate(-167.16498 -161.77828)" fill="#e4e4e4" />
  <path d="M537.83508,512.87513,477.9636,487.13542a4.9,4.9,0,1,0-3.87063,9.00323l59.87148,25.73971a4.9,4.9,0,1,0,3.87063-9.00323Z" transform="translate(-167.16498 -161.77828)" fill="#e4e4e4" />
  <path d="M632.10815,509.23338l-138.117-59.3787a4.905,4.905,0,0,0-3.87459,9.01241l138.117,59.3787a4.905,4.905,0,1,0,3.87458-9.01241Z" transform="translate(-167.16498 -161.77828)" fill="#e4e4e4" />
  <path d="M639.75858,491.43822l-138.117-59.3787a4.9,4.9,0,1,0-3.87063,9.00322l138.117,59.3787a4.9,4.9,0,1,0,3.87063-9.00322Z" transform="translate(-167.16498 -161.77828)" fill="#e4e4e4" />
  <path d="M569.16748,439.99487,509.296,414.25516a4.905,4.905,0,0,0-3.87458,9.01242l59.87148,25.73971a4.905,4.905,0,1,0,3.87458-9.01242Z" transform="translate(-167.16498 -161.77828)" fill="#e4e4e4" />
  <path d="M663.44055,436.35311l-138.117-59.37869a4.905,4.905,0,0,0-3.87458,9.01241l138.117,59.3787a4.905,4.905,0,1,0,3.87458-9.01242Z" transform="translate(-167.16498 -161.77828)" fill="rgb(21, 169, 130)" />
  <path d="M671.091,418.558,532.974,359.17926a4.905,4.905,0,0,0-3.87459,9.01241l138.117,59.3787A4.905,4.905,0,1,0,671.091,418.558Z" transform="translate(-167.16498 -161.77828)" fill="rgb(21, 169, 130)" />
  <path d="M600.49987,367.11461,540.62839,341.3749a4.905,4.905,0,0,0-3.87458,9.01242L596.62529,376.127a4.905,4.905,0,1,0,3.87458-9.01242Z" transform="translate(-167.16498 -161.77828)" fill="rgb(21, 169, 130)" />
  <path d="M451.442,439.90072,333.8168,466.36394a12.20139,12.20139,0,0,0-9.215,14.56508l32.25406,143.36459,138.20269-31.09275a6.05643,6.05643,0,0,0,2.99313-1.65173L466.00708,449.11575A12.20141,12.20141,0,0,0,451.442,439.90072Z" transform="translate(-167.16498 -161.77828)" fill="#e6e6e6" />
  <path d="M408.71486,459.64153l-64.46158,14.50252a11.11125,11.11125,0,0,0-8.39446,13.26082l30.325,134.79013,122.74395-27.61485-22.08437-98.16179A48.695,48.695,0,0,0,408.71486,459.64153Z" transform="translate(-167.16498 -161.77828)" fill="#fff" />
  <path d="M465.32333,587.31393l-80.92146,18.20566a2.70338,2.70338,0,1,0,1.18675,5.2749l80.92146-18.20565a2.70339,2.70339,0,1,0-1.18675-5.27491Z" transform="translate(-167.16498 -161.77828)" fill="#e4e4e4" />
  <path d="M462.97648,576.88253,382.055,595.08818a2.70614,2.70614,0,0,0,1.188,5.28029l80.92146-18.20565a2.70614,2.70614,0,1,0-1.188-5.28029Z" transform="translate(-167.16498 -161.77828)" fill="#e4e4e4" />
  <path d="M414.78753,576.7703l-35.07815,7.89186a2.70337,2.70337,0,1,0,1.18674,5.2749l35.07816-7.89185a2.70339,2.70339,0,1,0-1.18675-5.27491Z" transform="translate(-167.16498 -161.77828)" fill="#e4e4e4" />
  <path d="M455.71675,544.61405l-80.92147,18.20566a2.70614,2.70614,0,0,0,1.188,5.28029l80.92146-18.20565a2.70614,2.70614,0,1,0-1.188-5.2803Z" transform="translate(-167.16498 -161.77828)" fill="#e4e4e4" />
  <path d="M453.37111,534.188l-80.92147,18.20566a2.70338,2.70338,0,1,0,1.18675,5.2749l80.92146-18.20565a2.70338,2.70338,0,1,0-1.18674-5.27491Z" transform="translate(-167.16498 -161.77828)" fill="#e4e4e4" />
  <path d="M405.18094,534.07042l-35.07815,7.89186a2.70614,2.70614,0,0,0,1.188,5.28029l35.07815-7.89186a2.70614,2.70614,0,1,0-1.188-5.28029Z" transform="translate(-167.16498 -161.77828)" fill="#e4e4e4" />
  <path d="M446.11016,501.91417l-80.92147,18.20566a2.70614,2.70614,0,0,0,1.188,5.28029l80.92146-18.20565a2.70614,2.70614,0,1,0-1.188-5.2803Z" transform="translate(-167.16498 -161.77828)" fill="#e6e6e6" />
  <path d="M443.76452,491.48815l-80.92147,18.20566a2.70614,2.70614,0,0,0,1.188,5.28029l80.92146-18.20565a2.70614,2.70614,0,1,0-1.188-5.2803Z" transform="translate(-167.16498 -161.77828)" fill="#e6e6e6" />
  <path d="M395.57435,491.37054,360.4962,499.2624a2.70614,2.70614,0,0,0,1.188,5.28029l35.07815-7.89186a2.70614,2.70614,0,1,0-1.188-5.28029Z" transform="translate(-167.16498 -161.77828)" fill="#e6e6e6" />
  <path d="M287.29436,507.78715a2.89166,2.89166,0,0,0-2.89222,2.89117c0,.10846.089,222.82666.089,222.82666a2.89026,2.89026,0,0,0,2.874,2.56836H690.13762a2.88958,2.88958,0,0,0,2.874-2.56836L718.082,511.003a2.89272,2.89272,0,0,0-.71679-2.251,2.85868,2.85868,0,0,0-2.15625-.96484Z" transform="translate(-167.16498 -161.77828)" fill="#3f3d56" />
  <path d="M315.71659,520.11725a15.55483,15.55483,0,0,0-15.50879,15.374l.50293,172.60742A15.50883,15.50883,0,0,0,316.22,723.74322H571.89725A119.17426,119.17426,0,0,0,690.41043,617.83307l9.0669-80.46973a15.50838,15.50838,0,0,0-15.41162-17.24609Zm391.811,0-.0459-1h.0459Z" transform="translate(-167.16498 -161.77828)" fill="rgb(21, 169, 130)" />
  <path d="M427.39952,649.43435H328.3533a3.85894,3.85894,0,1,1,0-7.71789h99.04622C432.37608,641.647,432.42585,649.50444,427.39952,649.43435Z" transform="translate(-167.16498 -161.77828)" fill="#e4e4e4" />
  <path d="M560.8259,669.62041H328.3533a3.85894,3.85894,0,1,1,0-7.71789H560.8259C565.80245,661.83306,565.85223,669.6905,560.8259,669.62041Z" transform="translate(-167.16498 -161.77828)" fill="#e4e4e4" />
</svg>