<svg xmlns="http://www.w3.org/2000/svg" xmlns:xlink="http://www.w3.org/1999/xlink" data-name="Layer 1" width="962.23004" height="395" viewBox="100 200 962.23004 395">

  <path d="M396.54035,586.78942c-25.90558-.62006-53.67749,13.89532-61.04907,38.73767l140.62439-5.72473q-3.98924-2.75748-8.01441-5.446C446.525,600.00554,422.44587,587.40953,396.54035,586.78942Z" transform="translate(-47.49128 -152.77559)" fill="#f2f2f2" />


  <path d="M188.11567,665.80236c18.70032,12.92633,36.95013,26.72174,57.78656,35.69531,51.59418,22.21991,110.98785,11.85718,165.27521-2.58484,54.28735-14.442,109.70312-32.79193,165.38324-25.34839,31.57342,4.22089,61.38159,16.57367,91.85791,25.84131s63.26745,15.47345,94.0158,7.15277c30.74842-8.32068,58.483-34.70563,59.28693-66.5498C589.58887,597.08928,374.37614,595.81493,188.11567,665.80236Z" transform="translate(-47.49128 -152.77559)" fill="#f2f2f2" />
  <path d="M499.82792,451.644h-145.36a7.825,7.825,0,0,0-7.82,7.81994v52.96a7.825,7.825,0,0,0,7.82,7.82h145.36a7.825,7.825,0,0,0,7.82-7.82v-52.96A7.825,7.825,0,0,0,499.82792,451.644Z" transform="translate(-47.49128 -152.77559)" fill="#e6e6e6" />
  <rect x="309.65665" y="298.86845" width="4" height="68.59998" fill="#ccc" />
  <rect x="326.65665" y="298.86845" width="4" height="68.59998" fill="#ccc" />
  <rect x="343.65665" y="298.86845" width="4" height="68.59998" fill="#ccc" />
  <rect x="360.65665" y="298.86845" width="4" height="68.59998" fill="#ccc" />
  <rect x="377.65665" y="298.86845" width="4" height="68.59998" fill="#ccc" />
  <rect x="394.65665" y="298.86845" width="4" height="68.59998" fill="#ccc" />
  <rect x="411.65665" y="298.86845" width="4" height="68.59998" fill="#ccc" />
  <rect x="428.65665" y="298.86845" width="4" height="68.59998" fill="#ccc" />
  <rect x="445.65665" y="298.86845" width="4" height="68.59998" fill="#ccc" />

  <path d="M856.82792,451.644h-145.36a7.825,7.825,0,0,0-7.82,7.81994v52.96a7.825,7.825,0,0,0,7.82,7.82h145.36a7.825,7.825,0,0,0,7.82-7.82v-52.96A7.825,7.825,0,0,0,856.82792,451.644Z" transform="translate(-47.49128 -152.77559)" fill="#e6e6e6" />
  <rect x="666.65665" y="298.86845" width="4" height="68.59998" fill="#ccc" />
  <rect x="683.65665" y="298.86845" width="4" height="68.59998" fill="#ccc" />
  <rect x="700.65665" y="298.86845" width="4" height="68.59998" fill="#ccc" />
  <rect x="717.65665" y="298.86845" width="4" height="68.59998" fill="#ccc" />
  <rect x="734.65665" y="298.86845" width="4" height="68.59998" fill="#ccc" />
  <rect x="751.65665" y="298.86845" width="4" height="68.59998" fill="#ccc" />
  <rect x="768.65665" y="298.86845" width="4" height="68.59998" fill="#ccc" />
  <rect x="785.65665" y="298.86845" width="4" height="68.59998" fill="#ccc" />
  <rect x="802.65665" y="298.86845" width="4" height="68.59998" fill="#ccc" />
  <path d="M694.82792,451.644h-145.36a7.825,7.825,0,0,0-7.82,7.81994v52.96a7.825,7.825,0,0,0,7.82,7.82h145.36a7.825,7.825,0,0,0,7.82-7.82v-52.96A7.825,7.825,0,0,0,694.82792,451.644Z" transform="translate(-47.49128 -152.77559)" fill="#e6e6e6" />
  <rect x="504.65665" y="298.86845" width="4" height="68.59998" fill="#ccc" />
  <rect x="521.65665" y="298.86845" width="4" height="68.59998" fill="#ccc" />
  <rect x="538.65665" y="298.86845" width="4" height="68.59998" fill="#ccc" />
  <rect x="555.65665" y="298.86845" width="4" height="68.59998" fill="#ccc" />
  <rect x="572.65665" y="298.86845" width="4" height="68.59998" fill="#ccc" />
  <rect x="589.65665" y="298.86845" width="4" height="68.59998" fill="#ccc" />
  <rect x="606.65665" y="298.86845" width="4" height="68.59998" fill="#ccc" />
  <rect x="623.65665" y="298.86845" width="4" height="68.59998" fill="#ccc" />
  <rect x="640.65665" y="298.86845" width="4" height="68.59998" fill="#ccc" />
  <path d="M867.82792,382.644h-145.36a7.825,7.825,0,0,0-7.82,7.81994v52.96a7.825,7.825,0,0,0,7.82,7.82h145.36a7.825,7.825,0,0,0,7.82-7.82v-52.96A7.825,7.825,0,0,0,867.82792,382.644Z" transform="translate(-47.49128 -152.77559)" fill="#e6e6e6" />
  <rect x="677.65665" y="229.86845" width="4" height="68.59998" fill="#ccc" />
  <rect x="694.65665" y="229.86845" width="4" height="68.59998" fill="#ccc" />
  <rect x="711.65665" y="229.86845" width="4" height="68.59998" fill="#ccc" />
  <rect x="728.65665" y="229.86845" width="4" height="68.59998" fill="#ccc" />
  <rect x="745.65665" y="229.86845" width="4" height="68.59998" fill="#ccc" />
  <rect x="762.65665" y="229.86845" width="4" height="68.59998" fill="#ccc" />
  <rect x="779.65665" y="229.86845" width="4" height="68.59998" fill="#ccc" />
  <rect x="796.65665" y="229.86845" width="4" height="68.59998" fill="#ccc" />
  <rect x="813.65665" y="229.86845" width="4" height="68.59998" fill="#ccc" />
  <path d="M824.82792,456.644h-145.36a7.825,7.825,0,0,0-7.82,7.81994v52.96a7.825,7.825,0,0,0,7.82,7.82h145.36a7.825,7.825,0,0,0,7.82-7.82v-52.96A7.825,7.825,0,0,0,824.82792,456.644Z" transform="translate(-47.49128 -152.77559)" fill="#6c63ff" />
  <rect x="634.65665" y="303.86845" width="4" height="68.59998" fill="#3f3d56" />
  <rect x="651.65665" y="303.86845" width="4" height="68.59998" fill="#3f3d56" />
  <rect x="668.65665" y="303.86845" width="4" height="68.59998" fill="#3f3d56" />
  <rect x="685.65665" y="303.86845" width="4" height="68.59998" fill="#3f3d56" />
  <rect x="702.65665" y="303.86845" width="4" height="68.59998" fill="#3f3d56" />
  <rect x="719.65665" y="303.86845" width="4" height="68.59998" fill="#3f3d56" />
  <rect x="736.65665" y="303.86845" width="4" height="68.59998" fill="#3f3d56" />
  <rect x="753.65665" y="303.86845" width="4" height="68.59998" fill="#3f3d56" />
  <rect x="770.65665" y="303.86845" width="4" height="68.59998" fill="#3f3d56" />
  <path d="M641.82792,456.644h-145.36a7.825,7.825,0,0,0-7.82,7.81994v52.96a7.825,7.825,0,0,0,7.82,7.82h145.36a7.825,7.825,0,0,0,7.82-7.82v-52.96A7.825,7.825,0,0,0,641.82792,456.644Z" transform="translate(-47.49128 -152.77559)" fill="#6c63ff" />
  <rect x="451.65665" y="303.86845" width="4" height="68.59998" fill="#3f3d56" />
  <rect x="468.65665" y="303.86845" width="4" height="68.59998" fill="#3f3d56" />
  <rect x="485.65665" y="303.86845" width="4" height="68.59998" fill="#3f3d56" />
  <rect x="502.65665" y="303.86845" width="4" height="68.59998" fill="#3f3d56" />
  <rect x="519.65665" y="303.86845" width="4" height="68.59998" fill="#3f3d56" />
  <rect x="536.65665" y="303.86845" width="4" height="68.59998" fill="#3f3d56" />
  <rect x="553.65665" y="303.86845" width="4" height="68.59998" fill="#3f3d56" />
  <rect x="570.65665" y="303.86845" width="4" height="68.59998" fill="#3f3d56" />
  <rect x="587.65665" y="303.86845" width="4" height="68.59998" fill="#3f3d56" />
  <path d="M696.82792,387.644h-145.36a7.825,7.825,0,0,0-7.82,7.81994v52.96a7.825,7.825,0,0,0,7.82,7.82h145.36a7.825,7.825,0,0,0,7.82-7.82v-52.96A7.825,7.825,0,0,0,696.82792,387.644Z" transform="translate(-47.49128 -152.77559)" fill="#6c63ff" />
  <rect x="506.65665" y="234.86845" width="4" height="68.59998" fill="#3f3d56" />
  <rect x="523.65665" y="234.86845" width="4" height="68.59998" fill="#3f3d56" />
  <rect x="540.65665" y="234.86845" width="4" height="68.59998" fill="#3f3d56" />
  <rect x="557.65665" y="234.86845" width="4" height="68.59998" fill="#3f3d56" />
  <rect x="574.65665" y="234.86845" width="4" height="68.59998" fill="#3f3d56" />
  <rect x="591.65665" y="234.86845" width="4" height="68.59998" fill="#3f3d56" />
  <rect x="608.65665" y="234.86845" width="4" height="68.59998" fill="#3f3d56" />
  <rect x="625.65665" y="234.86845" width="4" height="68.59998" fill="#3f3d56" />
  <rect x="642.65665" y="234.86845" width="4" height="68.59998" fill="#3f3d56" />
  <path d="M446.82792,456.644h-145.36a7.825,7.825,0,0,0-7.82,7.81994v52.96a7.825,7.825,0,0,0,7.82,7.82h145.36a7.825,7.825,0,0,0,7.82-7.82v-52.96A7.825,7.825,0,0,0,446.82792,456.644Z" transform="translate(-47.49128 -152.77559)" fill="#6c63ff" />
  <rect x="256.65665" y="303.86845" width="4" height="68.59998" fill="#3f3d56" />
  <rect x="273.65665" y="303.86845" width="4" height="68.59998" fill="#3f3d56" />
  <rect x="290.65665" y="303.86845" width="4" height="68.59998" fill="#3f3d56" />
  <rect x="307.65665" y="303.86845" width="4" height="68.59998" fill="#3f3d56" />
  <rect x="324.65665" y="303.86845" width="4" height="68.59998" fill="#3f3d56" />
  <rect x="341.65665" y="303.86845" width="4" height="68.59998" fill="#3f3d56" />
  <rect x="358.65665" y="303.86845" width="4" height="68.59998" fill="#3f3d56" />
  <rect x="375.65665" y="303.86845" width="4" height="68.59998" fill="#3f3d56" />
  <rect x="392.65665" y="303.86845" width="4" height="68.59998" fill="#3f3d56" />
  <path d="M482.82792,387.644h-145.36a7.825,7.825,0,0,0-7.82,7.81994v52.96a7.825,7.825,0,0,0,7.82,7.82h145.36a7.825,7.825,0,0,0,7.82-7.82v-52.96A7.825,7.825,0,0,0,482.82792,387.644Z" transform="translate(-47.49128 -152.77559)" fill="#6c63ff" />
  <rect x="292.65665" y="234.86845" width="4" height="68.59998" fill="#3f3d56" />
  <rect x="309.65665" y="234.86845" width="4" height="68.59998" fill="#3f3d56" />
  <rect x="326.65665" y="234.86845" width="4" height="68.59998" fill="#3f3d56" />
  <rect x="343.65665" y="234.86845" width="4" height="68.59998" fill="#3f3d56" />
  <rect x="360.65665" y="234.86845" width="4" height="68.59998" fill="#3f3d56" />
  <rect x="377.65665" y="234.86845" width="4" height="68.59998" fill="#3f3d56" />
  <rect x="394.65665" y="234.86845" width="4" height="68.59998" fill="#3f3d56" />
  <rect x="411.65665" y="234.86845" width="4" height="68.59998" fill="#3f3d56" />
  <rect x="428.65665" y="234.86845" width="4" height="68.59998" fill="#3f3d56" />
  <path d="M952.80442,529.29406a16.67245,16.67245,0,0,0-.92706-2.523l-17.84607-38.39618a16.302,16.302,0,0,0-14.78314-9.43085H846.04771a16.302,16.302,0,0,0-14.78314,9.43085l-14.673,31.56915H398.23948l-14.20819-30.56915a16.302,16.302,0,0,0-14.78314-9.43085H296.04771a16.27567,16.27567,0,0,0-8.01544,2.11487l-12.30756-21.97784a7.51762,7.51762,0,0,0-14.07678,3.67315V636.36132a19.58267,19.58267,0,0,0,19.5827,19.5827H841.4083a19.58274,19.58274,0,0,0,14.00061-5.89093l94.69855-96.83465A19.40952,19.40952,0,0,0,952.80442,529.29406Z" transform="translate(-47.49128 -152.77559)" fill="#3f3d56" />
  <path d="M854.24656,517.444h-9.19727a7.40984,7.40984,0,0,1-7.40136-7.40136V499.84539a7.40985,7.40985,0,0,1,7.40136-7.40137h9.19727a7.40985,7.40985,0,0,1,7.40137,7.40137v10.19727A7.40985,7.40985,0,0,1,854.24656,517.444Z" transform="translate(-47.49128 -152.77559)" fill="#fff" />
  <path d="M887.24656,517.444h-9.19727a7.40984,7.40984,0,0,1-7.40136-7.40136V499.84539a7.40985,7.40985,0,0,1,7.40136-7.40137h9.19727a7.40985,7.40985,0,0,1,7.40137,7.40137v10.19727A7.40985,7.40985,0,0,1,887.24656,517.444Z" transform="translate(-47.49128 -152.77559)" fill="#fff" />
  <path d="M920.24656,517.444h-9.19727a7.40984,7.40984,0,0,1-7.40136-7.40136V499.84539a7.40985,7.40985,0,0,1,7.40136-7.40137h9.19727a7.40985,7.40985,0,0,1,7.40137,7.40137v10.19727A7.40985,7.40985,0,0,1,920.24656,517.444Z" transform="translate(-47.49128 -152.77559)" fill="#fff" />


  <path d="M304.24656,518.444h-9.19727a7.40984,7.40984,0,0,1-7.40136-7.40136V500.84539a7.40985,7.40985,0,0,1,7.40136-7.40137h9.19727a7.40985,7.40985,0,0,1,7.40137,7.40137v10.19727A7.40985,7.40985,0,0,1,304.24656,518.444Z" transform="translate(-47.49128 -152.77559)" fill="#fff" />
  <path d="M337.24656,518.444h-9.19727a7.40984,7.40984,0,0,1-7.40136-7.40136V500.84539a7.40985,7.40985,0,0,1,7.40136-7.40137h9.19727a7.40985,7.40985,0,0,1,7.40137,7.40137v10.19727A7.40985,7.40985,0,0,1,337.24656,518.444Z" transform="translate(-47.49128 -152.77559)" fill="#fff" />
  <path d="M370.24656,518.444h-9.19727a7.40984,7.40984,0,0,1-7.40136-7.40136V500.84539a7.40985,7.40985,0,0,1,7.40136-7.40137h9.19727a7.40985,7.40985,0,0,1,7.40137,7.40137v10.19727A7.40985,7.40985,0,0,1,370.24656,518.444Z" transform="translate(-47.49128 -152.77559)" fill="#fff" />
  <path d="M247.17094,623.75884c-25.90558-.62-53.67749,13.89533-61.04907,38.73767l140.62438-5.72473q-3.98922-2.75748-8.0144-5.446C297.15562,636.975,273.07645,624.379,247.17094,623.75884Z" transform="translate(-47.49128 -152.77559)" fill="#6c63ff" />
  <path d="M326.74625,656.77178c18.70032,12.92633,36.95014,26.72174,57.78656,35.69531C436.127,714.687,495.52067,704.32427,549.808,689.88226s109.70313-32.79194,165.38324-25.34839c31.57343,4.22088,61.38159,16.57367,91.85791,25.84131s63.26746,15.47345,94.01581,7.15277c30.74841-8.32068,58.483-34.70563,59.28693-66.54981C728.21946,588.05871,513.00672,586.78436,326.74625,656.77178Z" transform="translate(-47.49128 -152.77559)" fill="#6c63ff" />


</svg>