<svg xmlns="http://www.w3.org/2000/svg" xmlns:xlink="http://www.w3.org/1999/xlink" data-name="Layer 1" width="811.03" height="811.33" viewBox="200 0 811.03 800.33">
  <defs>
    <linearGradient id="9a623e6e-caf0-4d64-85ef-a44d2d775d4e-87" x1="615.84" y1="778.42" x2="615.84" y2="38.42" gradientUnits="userSpaceOnUse">
      <stop offset="0" stop-color="gray" stop-opacity="0.25" />
      <stop offset="0.54" stop-color="gray" stop-opacity="0.12" />
      <stop offset="1" stop-color="gray" stop-opacity="0.1" />
    </linearGradient>
    <linearGradient id="27839906-647e-4714-8b82-00411afaaa9d-88" x1="523.24" y1="450.57" x2="523.24" y2="415.61" xlink:href="#9a623e6e-caf0-4d64-85ef-a44d2d775d4e-87" />
    <linearGradient id="019c00cb-56c9-415d-990c-d992997e4242-89" x1="492.75" y1="443.37" x2="492.75" y2="424.79" xlink:href="#9a623e6e-caf0-4d64-85ef-a44d2d775d4e-87" />
    <linearGradient id="231821a7-8fe6-4f40-9490-9a81b384aeef-90" x1="440.03" y1="447.06" x2="440.03" y2="328.96" xlink:href="#9a623e6e-caf0-4d64-85ef-a44d2d775d4e-87" />
    <linearGradient id="ae18a487-9ffc-47bd-8f52-b3a16e5ff5c8-91" x1="387.02" y1="863.11" x2="387.02" y2="814.32" xlink:href="#9a623e6e-caf0-4d64-85ef-a44d2d775d4e-87" />
    <linearGradient id="55e06269-ab84-4259-86ac-b336e5465e15-92" x1="490.84" y1="868.17" x2="490.84" y2="823.44" xlink:href="#9a623e6e-caf0-4d64-85ef-a44d2d775d4e-87" />
    <linearGradient id="0a1d47d7-d222-4d2a-84f6-1160d51d618c-93" x1="389.79" y1="842.68" x2="389.79" y2="511.9" xlink:href="#9a623e6e-caf0-4d64-85ef-a44d2d775d4e-87" />
    <linearGradient id="68af950a-3acb-4036-a310-20f1e00a0aa7-94" x1="440.98" y1="848.71" x2="440.98" y2="532.82" xlink:href="#9a623e6e-caf0-4d64-85ef-a44d2d775d4e-87" />
    <linearGradient id="0ce50e0a-8288-45d6-a68e-f9c25cfd9357-95" x1="413.14" y1="308.13" x2="413.14" y2="236.61" xlink:href="#9a623e6e-caf0-4d64-85ef-a44d2d775d4e-87" />
    <linearGradient id="2468d3b2-8c71-46f1-86a0-8806dd38ede0-96" x1="422.31" y1="559.9" x2="422.31" y2="511.9" xlink:href="#9a623e6e-caf0-4d64-85ef-a44d2d775d4e-87" />
    <linearGradient id="ab82eb9a-10bc-4015-8c83-c1b3ce6172f0-97" x1="415.6" y1="557.88" x2="415.6" y2="281.14" xlink:href="#9a623e6e-caf0-4d64-85ef-a44d2d775d4e-87" />
    <linearGradient id="8509957c-49db-4aed-8978-fce3b7f533d4-98" x1="438.88" y1="467.59" x2="438.88" y2="339.25" xlink:href="#9a623e6e-caf0-4d64-85ef-a44d2d775d4e-87" />
    <linearGradient id="c54b3c11-abda-43bb-8a8d-1fa56ce4f5d1-99" x1="433.54" y1="284.73" x2="433.54" y2="240.66" xlink:href="#9a623e6e-caf0-4d64-85ef-a44d2d775d4e-87" />
    <linearGradient id="40d04a76-1424-458b-b947-a5bfbc7d42f2-100" x1="398.91" y1="249.31" x2="398.91" y2="160.24" xlink:href="#9a623e6e-caf0-4d64-85ef-a44d2d775d4e-87" />
    <linearGradient id="5ce16e99-e1d1-4913-b330-fcfdc7b7fa41-101" x1="442.24" y1="270.35" x2="442.24" y2="170.34" xlink:href="#9a623e6e-caf0-4d64-85ef-a44d2d775d4e-87" />
    <linearGradient id="4b9461a6-5ec4-4f73-8b59-40f8951be702-102" x1="441.54" y1="269.68" x2="441.54" y2="169.67" xlink:href="#9a623e6e-caf0-4d64-85ef-a44d2d775d4e-87" />
    <linearGradient id="e3604d36-f40d-4186-a927-9dbaf3781bd2-103" x1="429.99" y1="557.88" x2="429.99" y2="290.91" xlink:href="#9a623e6e-caf0-4d64-85ef-a44d2d775d4e-87" />
    <linearGradient id="2fa73d01-fdfe-4305-bc58-d4f4516ffda0-104" x1="528.56" y1="487.5" x2="528.56" y2="453.2" xlink:href="#9a623e6e-caf0-4d64-85ef-a44d2d775d4e-87" />
    <linearGradient id="c580d740-0609-4a8d-8b93-2823000eeb05-105" x1="498.27" y1="470.57" x2="498.27" y2="453.2" xlink:href="#9a623e6e-caf0-4d64-85ef-a44d2d775d4e-87" />
    <linearGradient id="3a3f1fbb-e5c8-4212-ad65-595049b5103a-106" x1="458.92" y1="472.77" x2="458.92" y2="337.23" xlink:href="#9a623e6e-caf0-4d64-85ef-a44d2d775d4e-87" />
    <linearGradient id="557e2b40-a269-4a6b-b7c4-b92691329eac-107" x1="393.94" y1="462.98" x2="393.94" y2="448.81" xlink:href="#9a623e6e-caf0-4d64-85ef-a44d2d775d4e-87" />
  </defs>
  <title>old_day</title>
  <path d="M834.57,45.45l-68.3-4.14-39.52-2.82v-.07l-.49,0-.55,0v.08l-212.51,17H495.58l-2.07,73.35,34.21,12.06,20.73,105.5L454.12,433.28l-57,43.2v41.19l34.21,33.16,2.07,151.72,10.37,2,0-1.61,5.21,1v.6l202.45,68.08,8.51,5.77,17.8-11.09,143.4-82.85ZM616.92,516.77h0l55.46-47h0ZM424.57,536.27l15,14.57v.9Z" transform="translate(-44.49 -31.83)" fill="url(#9a623e6e-caf0-4d64-85ef-a44d2d775d4e-87)" />
  <polygon points="407.35 522.08 609.35 573.08 579.35 539.08 562.35 518.08 385.35 483.08 377.35 490.08 407.35 522.08" fill="#535461" />
  <polygon points="377.35 490.08 576.35 536.08 577.35 488.08 520.35 466.08 406.35 447.08 373.35 447.08 377.35 490.08" fill="#d6d6e3" />
  <polygon points="521.35 218.08 724.35 231.08 724.35 193.08 710.35 108.08 703.35 102.08 500.35 108.08 521.35 218.08" fill="#d6d6e3" />
  <polygon points="473.35 27.08 463.35 27.08 461.35 100.08 494.35 112.08 514.35 217.08 423.35 403.08 368.35 446.08 368.35 487.08 401.35 520.08 403.35 671.08 413.35 673.08 411.35 523.08 378.35 488.08 377.35 446.08 430.35 404.08 523.35 218.08 503.35 112.08 470.35 98.08 473.35 27.08 473.35 27.08" fill="#d6d6e3" />
  <polygon points="465.35 27.08 455.35 27.08 453.35 100.08 486.35 112.08 506.35 217.08 415.35 403.08 360.35 446.08 360.35 487.08 393.35 520.08 395.35 671.08 405.35 673.08 403.35 523.08 370.35 488.08 369.35 446.08 424.35 404.08 515.35 218.08 495.35 112.08 462.35 98.08 465.35 27.08 465.35 27.08" fill="#535461" />
  <polygon points="464.85 92.58 469.85 99.58 497.85 112.58 719.85 106.58 698.35 100.08 675.35 90.08 678.35 82.08 464.85 92.58" fill="#a8a8a8" />
  <polygon points="427.35 407.08 630.35 440.08 671.35 353.08 727.35 228.08 521.35 218.08 427.35 407.08" fill="#107f2f" />
  <g opacity="0.1">
    <polygon points="532.35 254.08 669.35 265.08 598.35 405.08 465.35 385.08 532.35 254.08" fill="#fff" />
  </g>
  <g opacity="0.1">
    <polygon points="541.8 264.25 547.85 264.74 544.72 270.91 538.85 270.03 541.8 264.25" fill="#fff" />
  </g>
  <g opacity="0.1">
    <polygon points="542.8 322.25 548.85 322.74 545.72 328.91 539.85 328.03 542.8 322.25" fill="#fff" />
  </g>
  <g opacity="0.1">
    <polygon points="575.8 271.25 581.85 271.74 578.72 277.91 572.85 277.03 575.8 271.25" fill="#fff" />
  </g>
  <g opacity="0.1">
    <polygon points="638.8 274.25 644.85 274.74 641.72 280.91 635.85 280.03 638.8 274.25" fill="#fff" />
  </g>
  <g opacity="0.1">
    <polygon points="553.8 282.25 559.85 282.74 556.72 288.91 550.85 288.03 553.8 282.25" fill="#fff" />
  </g>
  <g opacity="0.1">
    <polygon points="575.8 343.25 581.85 343.74 578.72 349.91 572.85 349.03 575.8 343.25" fill="#fff" />
  </g>
  <g opacity="0.1">
    <polygon points="521.8 308.25 527.85 308.74 524.72 314.91 518.85 314.03 521.8 308.25" fill="#fff" />
  </g>
  <g opacity="0.1">
    <polygon points="613.8 271.25 619.85 271.74 616.72 277.91 610.85 277.03 613.8 271.25" fill="#fff" />
  </g>
  <g opacity="0.1">
    <polygon points="565.8 305.25 571.85 305.74 568.72 311.91 562.85 311.03 565.8 305.25" fill="#fff" />
  </g>
  <g opacity="0.1">
    <polygon points="558.8 267.25 564.85 267.74 561.72 273.91 555.85 273.03 558.8 267.25" fill="#fff" />
  </g>
  <g opacity="0.1">
    <polygon points="589.8 302.25 595.85 302.74 592.72 308.91 586.85 308.03 589.8 302.25" fill="#fff" />
  </g>
  <g opacity="0.1">
    <polygon points="596.8 271.25 602.85 271.74 599.72 277.91 593.85 277.03 596.8 271.25" fill="#fff" />
  </g>
  <g opacity="0.1">
    <polygon points="533.8 285.25 539.85 285.74 536.72 291.91 530.85 291.03 533.8 285.25" fill="#fff" />
  </g>
  <polygon points="373.35 447.08 571.35 487.08 625.89 439.36 427.85 405.58 373.35 447.08" fill="#d6d6e3" />
  <polygon points="410.35 517.08 410.35 673.08 606.35 741.08 609.35 579.08 601.35 564.01 565.35 555.08 410.35 517.08" fill="#535461" />
  <ellipse cx="435.85" cy="420.08" rx="8.5" ry="5" fill="#575988" />
  <ellipse cx="442.85" cy="431.08" rx="8.5" ry="5" fill="#fa595f" />
  <ellipse cx="418.85" cy="428.08" rx="8.5" ry="5" fill="#ffd037" />
  <ellipse cx="526.85" cy="438.08" rx="8.5" ry="5" fill="#575988" />
  <ellipse cx="509.85" cy="447.08" rx="8.5" ry="5" fill="#ffd037" />
  <ellipse cx="477.85" cy="432.08" rx="12.5" ry="6" fill="#a8a8a8" />
  <ellipse cx="535.85" cy="449.08" rx="8.5" ry="5" fill="#fa595f" />
  <path d="M525.84,462.92h-6L514.68,443a5.67,5.67,0,0,1,5.49-7.09h0a5.67,5.67,0,0,1,5.67,5.67Z" transform="translate(-44.49 -31.83)" fill="#a8a8a8" />
  <ellipse cx="567.85" cy="448.08" rx="12.5" ry="6" fill="#a8a8a8" />
  <path d="M615.84,478.92h-6L604.68,459a5.67,5.67,0,0,1,5.49-7.09h0a5.67,5.67,0,0,1,5.67,5.67Z" transform="translate(-44.49 -31.83)" fill="#a8a8a8" />
  <polygon points="472.35 27.08 678.35 10.08 673.35 85.08 467.35 95.08 472.35 27.08" fill="#535461" />
  <polygon points="677.35 10.08 772.35 17.08 759.35 653.08 613.85 746.58 603.85 739.58 603.35 573.08 571.35 537.08 571.35 487.08 627.35 438.08 722.35 227.08 708.85 106.58 715.85 106.58 671.35 91.08 677.35 10.08" fill="#d6d6e3" />
  <polygon points="686.35 11.08 782.35 17.08 769.35 653.08 613.35 746.08 613.35 573.08 581.35 537.08 581.35 487.08 637.35 438.08 732.35 227.08 715.35 106.08 681.35 91.08 686.35 11.08" fill="#535461" />
</svg>