<svg xmlns="http://www.w3.org/2000/svg" xmlns:xlink="http://www.w3.org/1999/xlink" data-name="Layer 1" width="585.16603" height="507.75418" viewBox="200 0 585.16603 507.75418">
  <path d="M755.42286,538.5541c-80.77393.0039-151.05273-60.252-161.43506-142.4375l1.98438-.251c10.2539,81.1709,79.67675,140.68359,159.45215,140.68848a161.36228,161.36228,0,0,0,20.27343-1.2793c87.98584-11.11524,150.52442-91.73926,139.40918-179.7251l1.98438-.251c11.25342,89.07959-52.063,170.70752-141.14258,181.96045A163.74252,163.74252,0,0,1,755.42286,538.5541Z" transform="translate(-207.41698 -196.12291)" fill="#3f3d56" />
  <path d="M819.834,276.76113a56.086,56.086,0,1,1,104.91651-39.6875l-1.8711.708a54.08546,54.08546,0,1,0-101.17431,38.27149Z" transform="translate(-207.41698 -196.12291)" fill="#3f3d56" />
  <path d="M982.30624,374.65269H880.64118a10.28839,10.28839,0,0,1-10.27672-10.27678V229.75979A10.28839,10.28839,0,0,1,880.64118,219.483H982.30624A10.28841,10.28841,0,0,1,992.583,229.75979V364.37591A10.28841,10.28841,0,0,1,982.30624,374.65269Z" transform="translate(-207.41698 -196.12291)" fill="#e6e6e6" />
  <path d="M941.91309,366.5873H887.78761a9.63563,9.63563,0,0,1-9.625-9.62451v-119.79a9.63563,9.63563,0,0,1,9.625-9.62451h87.37256a9.63521,9.63521,0,0,1,9.62451,9.62451v86.54346A42.91981,42.91981,0,0,1,941.91309,366.5873Z" transform="translate(-207.41698 -196.12291)" fill="#fff" />
  <path d="M966.444,287.62093H896.50345a2.281,2.281,0,1,1,0-4.562H966.444a2.281,2.281,0,1,1,0,4.562Z" transform="translate(-207.41698 -196.12291)" fill="#e4e4e4" />
  <path d="M966.444,296.63427H896.50345a2.28111,2.28111,0,0,1,0-4.56221H966.444a2.2811,2.2811,0,1,1,0,4.56221Z" transform="translate(-207.41698 -196.12291)" fill="#e4e4e4" />
  <path d="M926.821,305.6476H896.50345a2.2811,2.2811,0,0,1,0-4.56221H926.821a2.2811,2.2811,0,0,1,0,4.56221Z" transform="translate(-207.41698 -196.12291)" fill="#e4e4e4" />
  <path d="M966.444,250.81305H896.50345a2.281,2.281,0,1,1,0-4.562H966.444a2.281,2.281,0,1,1,0,4.562Z" transform="translate(-207.41698 -196.12291)" fill="#e4e4e4" />
  <path d="M966.444,259.82638H896.50345a2.2811,2.2811,0,0,1,0-4.5622H966.444a2.2811,2.2811,0,1,1,0,4.5622Z" transform="translate(-207.41698 -196.12291)" fill="#e4e4e4" />
  <path d="M926.821,268.83972H896.50345a2.28111,2.28111,0,0,1,0-4.56221H926.821a2.28111,2.28111,0,0,1,0,4.56221Z" transform="translate(-207.41698 -196.12291)" fill="#e4e4e4" />
  <path d="M966.444,325.717H896.50345a2.281,2.281,0,1,1,0-4.562H966.444a2.281,2.281,0,1,1,0,4.562Z" transform="translate(-207.41698 -196.12291)" fill="rgb(169, 95, 21)" />
  <path d="M907.444,334.73033H896.50345a2.28111,2.28111,0,0,1,0-4.56221H907.444a2.2811,2.2811,0,1,1,0,4.56221Z" transform="translate(-207.41698 -196.12291)" fill="rgb(169, 95, 21)" />
  <path d="M926.821,343.74366H896.50345a2.2811,2.2811,0,0,1,0-4.56221H926.821a2.2811,2.2811,0,0,1,0,4.56221Z" transform="translate(-207.41698 -196.12291)" fill="rgb(169, 95, 21)" />
  <path d="M595.50392,370.14A94.03111,94.03111,0,0,1,771.40186,303.602l-1.87109.708A92.03055,92.03055,0,1,0,597.375,369.432Z" transform="translate(-207.41698 -196.12291)" fill="#3f3d56" />
  <circle cx="562.90685" cy="11.14083" r="9.54602" fill="#e6e6e6" />
  <circle cx="575.90685" cy="286.14083" r="9.54602" fill="#e6e6e6" />
  <circle cx="330.90685" cy="59.14083" r="9.54602" fill="#e6e6e6" />
  <path d="M670.11717,647.51092h-218.533A22.11531,22.11531,0,0,1,429.494,625.42059V336.058a22.1153,22.1153,0,0,1,22.09021-22.09033h218.533A22.11533,22.11533,0,0,1,692.2075,336.058V625.42059A22.11533,22.11533,0,0,1,670.11717,647.51092Z" transform="translate(-207.41698 -196.12291)" fill="#e6e6e6" />
  <path d="M586.70948,629.6H466.94532a20.1369,20.1369,0,0,1-20.11377-20.11425V351.99257a20.13649,20.13649,0,0,1,20.11377-20.11377H654.75587a20.13649,20.13649,0,0,1,20.11377,20.11377V541.43984A88.26013,88.26013,0,0,1,586.70948,629.6Z" transform="translate(-207.41698 -196.12291)" fill="#fff" />
  <path d="M636.02059,381.31282H485.68075a4.90308,4.90308,0,1,1,0-9.80615H636.02059a4.90308,4.90308,0,1,1,0,9.80615Z" transform="translate(-207.41698 -196.12291)" fill="rgb(169, 95, 21)" />
  <path d="M636.02059,400.68733H485.68075a4.90332,4.90332,0,0,1,0-9.80664H636.02059a4.90332,4.90332,0,1,1,0,9.80664Z" transform="translate(-207.41698 -196.12291)" fill="rgb(169, 95, 21)" />
  <path d="M550.84945,420.06184h-65.1687a4.90332,4.90332,0,0,1,0-9.80664h65.1687a4.90332,4.90332,0,1,1,0,9.80664Z" transform="translate(-207.41698 -196.12291)" fill="rgb(169, 95, 21)" />
  <path d="M636.02059,460.63927H485.68075a4.90308,4.90308,0,1,1,0-9.80615H636.02059a4.90308,4.90308,0,1,1,0,9.80615Z" transform="translate(-207.41698 -196.12291)" fill="#e4e4e4" />
  <path d="M636.02059,480.01378H485.68075a4.90332,4.90332,0,0,1,0-9.80664H636.02059a4.90332,4.90332,0,0,1,0,9.80664Z" transform="translate(-207.41698 -196.12291)" fill="#e4e4e4" />
  <path d="M550.84945,499.38829h-65.1687a4.90332,4.90332,0,0,1,0-9.80664h65.1687a4.90332,4.90332,0,1,1,0,9.80664Z" transform="translate(-207.41698 -196.12291)" fill="#e4e4e4" />
  <path d="M636.02059,539.96572H485.68075a4.90308,4.90308,0,1,1,0-9.80615H636.02059a4.90308,4.90308,0,1,1,0,9.80615Z" transform="translate(-207.41698 -196.12291)" fill="#e4e4e4" />
  <path d="M636.02059,559.34023H485.68075a4.90332,4.90332,0,0,1,0-9.80664H636.02059a4.90332,4.90332,0,0,1,0,9.80664Z" transform="translate(-207.41698 -196.12291)" fill="#e4e4e4" />
  <path d="M550.84945,578.71475h-65.1687a4.90333,4.90333,0,0,1,0-9.80665h65.1687a4.90333,4.90333,0,0,1,0,9.80665Z" transform="translate(-207.41698 -196.12291)" fill="#e4e4e4" />
  <path d="M838.49266,432.65269H727.82291a11.19966,11.19966,0,0,1-11.187-11.187V274.92632a11.19967,11.19967,0,0,1,11.187-11.187H838.49266a11.19968,11.19968,0,0,1,11.187,11.187V421.46568A11.19968,11.19968,0,0,1,838.49266,432.65269Z" transform="translate(-207.41698 -196.12291)" fill="#e6e6e6" />
  <path d="M797.46681,423.82851H735.60206a10.4446,10.4446,0,0,1-10.43262-10.43262V282.996a10.4447,10.4447,0,0,1,10.43262-10.43311h95.11133a10.4448,10.4448,0,0,1,10.4331,10.43311v97.15332A43.72886,43.72886,0,0,1,797.46681,423.82851Z" transform="translate(-207.41698 -196.12291)" fill="#fff" />
  <path d="M821.22544,297.84431h-76.1353a2.483,2.483,0,1,1,0-4.966h76.1353a2.483,2.483,0,1,1,0,4.966Z" transform="translate(-207.41698 -196.12291)" fill="#e4e4e4" />
  <path d="M821.22544,307.656h-76.1353a2.48315,2.48315,0,0,1,0-4.96629h76.1353a2.48315,2.48315,0,0,1,0,4.96629Z" transform="translate(-207.41698 -196.12291)" fill="#e4e4e4" />
  <path d="M778.093,317.46764H745.09014a2.48315,2.48315,0,0,1,0-4.96629H778.093a2.48315,2.48315,0,0,1,0,4.96629Z" transform="translate(-207.41698 -196.12291)" fill="#e4e4e4" />
  <path d="M821.22544,338.01691h-76.1353a2.483,2.483,0,1,1,0-4.966h76.1353a2.483,2.483,0,1,1,0,4.966Z" transform="translate(-207.41698 -196.12291)" fill="rgb(169, 95, 21)" />
  <path d="M801.22544,347.82858h-56.1353a2.48314,2.48314,0,0,1,0-4.96629h56.1353a2.48314,2.48314,0,0,1,0,4.96629Z" transform="translate(-207.41698 -196.12291)" fill="rgb(169, 95, 21)" />
  <path d="M778.093,357.64024H745.09014a2.48315,2.48315,0,0,1,0-4.96629H778.093a2.48315,2.48315,0,0,1,0,4.96629Z" transform="translate(-207.41698 -196.12291)" fill="rgb(169, 95, 21)" />
  <path d="M821.22544,378.18951h-76.1353a2.483,2.483,0,1,1,0-4.966h76.1353a2.483,2.483,0,1,1,0,4.966Z" transform="translate(-207.41698 -196.12291)" fill="#e4e4e4" />
  <path d="M821.22544,388.00118h-76.1353a2.48314,2.48314,0,0,1,0-4.96629h76.1353a2.48314,2.48314,0,0,1,0,4.96629Z" transform="translate(-207.41698 -196.12291)" fill="#e4e4e4" />
  <path d="M778.093,397.81284H745.09014a2.48315,2.48315,0,0,1,0-4.96629H778.093a2.48315,2.48315,0,0,1,0,4.96629Z" transform="translate(-207.41698 -196.12291)" fill="#e4e4e4" />
</svg>