<svg xmlns="http://www.w3.org/2000/svg" xmlns:xlink="http://www.w3.org/1999/xlink" data-name="Layer 1" width="704.51179" height="487.86116" viewBox="-20 -20 704.51179 487.86116">
  <circle cx="246.14815" cy="186.83946" r="169" fill="#f2f2f2" />
  <circle cx="442.14815" cy="318.83946" r="32" fill="#f2f2f2" />
  <path d="M528.99139,560.91318c-80.77392.00391-151.05273-60.252-161.43506-142.4375l1.98438-.251c10.2539,81.1709,79.67676,140.6836,159.45215,140.68848a161.36039,161.36039,0,0,0,20.27343-1.2793c87.98584-11.11523,150.52442-91.73926,139.40918-179.72509l1.98438-.251c11.25342,89.07959-52.063,170.70752-141.14258,181.96045A163.74439,163.74439,0,0,1,528.99139,560.91318Z" transform="translate(-147.74411 -156.06942)" fill="#3f3d56" />
  <path d="M533.32878,594.36151H501.52507a4.50049,4.50049,0,0,1-3.53466-1.70263,4.40807,4.40807,0,0,1-.8628-3.74561,86.51558,86.51558,0,0,0-.52-40.40088,4.47676,4.47676,0,0,1,1.95117-4.87353c11.00245-6.81592,22.98291-6.603,36.62793.65185a4.55074,4.55074,0,0,1,2.36817,3.27491,141.562,141.562,0,0,1,.23437,42.92431A4.49087,4.49087,0,0,1,533.32878,594.36151Z" transform="translate(-147.74411 -156.06942)" fill="#1578a9" />
  <path d="M388.32878,424.36151H356.52507a4.50049,4.50049,0,0,1-3.53466-1.70263,4.40807,4.40807,0,0,1-.8628-3.74561,86.49,86.49,0,0,0-.55517-40.53613,4.509,4.509,0,0,1,1.74951-4.73828c16.35351-11.76172,29.23242-11.42041,38.27929,1.01611a4.51917,4.51917,0,0,1,.79151,1.90967,141.54,141.54,0,0,1,.39648,43.92529A4.49087,4.49087,0,0,1,388.32878,424.36151Z" transform="translate(-147.74411 -156.06942)" fill="#ccc" />
  <path d="M518.46882,564.5127H507.5283a2.28111,2.28111,0,0,1,0-4.56221h10.94052a2.2811,2.2811,0,0,1,0,4.56221Z" transform="translate(-147.74411 -156.06942)" fill="#fff" />
  <path d="M531.84583,573.526H507.5283a2.28111,2.28111,0,0,1,0-4.56221h24.31753a2.28111,2.28111,0,0,1,0,4.56221Z" transform="translate(-147.74411 -156.06942)" fill="#fff" />
  <path d="M378.46882,392.5127H367.5283a2.28111,2.28111,0,0,1,0-4.56221h10.94052a2.28111,2.28111,0,0,1,0,4.56221Z" transform="translate(-147.74411 -156.06942)" fill="#fff" />
  <path d="M378.46882,400.5127H367.5283a2.28111,2.28111,0,0,1,0-4.56221h10.94052a2.28111,2.28111,0,0,1,0,4.56221Z" transform="translate(-147.74411 -156.06942)" fill="#fff" />
  <path d="M378.46882,408.5127H367.5283a2.28111,2.28111,0,0,1,0-4.56221h10.94052a2.28111,2.28111,0,0,1,0,4.56221Z" transform="translate(-147.74411 -156.06942)" fill="#fff" />
  <path d="M816.37043,461.93466H714.70537a10.28839,10.28839,0,0,1-10.27672-10.27677V389.04176A10.2884,10.2884,0,0,1,714.70537,378.765H816.37043a10.28841,10.28841,0,0,1,10.27678,10.27678v62.61613A10.28841,10.28841,0,0,1,816.37043,461.93466Z" transform="translate(-147.74411 -156.06942)" fill="#e6e6e6" />
  <path d="M775.97729,453.86927H721.8518a9.63563,9.63563,0,0,1-9.625-9.62451v-47.79a9.63563,9.63563,0,0,1,9.625-9.62451h87.37256a9.63521,9.63521,0,0,1,9.62451,9.62451v14.54346A42.9198,42.9198,0,0,1,775.97729,453.86927Z" transform="translate(-147.74411 -156.06942)" fill="#fff" />
  <path d="M800.50816,412.999H730.56764a2.281,2.281,0,1,1,0-4.562h69.94052a2.281,2.281,0,1,1,0,4.562Z" transform="translate(-147.74411 -156.06942)" fill="#1578a9" />
  <path d="M741.50816,422.0123H730.56764a2.28111,2.28111,0,0,1,0-4.56221h10.94052a2.28111,2.28111,0,0,1,0,4.56221Z" transform="translate(-147.74411 -156.06942)" fill="#1578a9" />
  <path d="M760.88517,431.02563H730.56764a2.2811,2.2811,0,0,1,0-4.5622h30.31753a2.2811,2.2811,0,1,1,0,4.5622Z" transform="translate(-147.74411 -156.06942)" fill="#1578a9" />
  <circle cx="553.1367" cy="221.44848" r="21.50617" fill="#3f3d56" />
  <path d="M457.43074,213.91906a56.086,56.086,0,1,1,110.05652,21.68253l-1.96288-.38651a54.08546,54.08546,0,1,0-106.13077-20.90951Z" transform="translate(-147.74411 -156.06942)" fill="#3f3d56" />
  <path d="M478.72848,249.30339,446.952,250.61952a4.50052,4.50052,0,0,1-3.6021-1.55491,4.408,4.408,0,0,1-1.01706-3.70669,86.53527,86.53527,0,0,0-2.075-39.95275,4.47106,4.47106,0,0,1,2.20795-5.22671c13.0155-6.76218,25.211-7.10505,36.24566-1.02035a4.52655,4.52655,0,0,1,2.27165,3.06,141.5524,141.5524,0,0,1,2.04182,43.03244A4.49087,4.49087,0,0,1,478.72848,249.30339Z" transform="translate(-147.74411 -156.06942)" fill="#1578a9" />
  <path d="M477.38371,228.50575,453.087,229.51207a2.2811,2.2811,0,1,1-.1888-4.55829l24.2967-1.00633a2.2811,2.2811,0,0,1,.18879,4.5583Z" transform="translate(-147.74411 -156.06942)" fill="#fff" />
  <path d="M477.05265,220.5126l-24.2967,1.00633a2.2811,2.2811,0,0,1-.18879-4.5583l24.2967-1.00633a2.2811,2.2811,0,0,1,.18879,4.5583Z" transform="translate(-147.74411 -156.06942)" fill="#fff" />
  <path d="M686.68589,239.2391H585.02083a10.28839,10.28839,0,0,1-10.27672-10.27678V166.3462a10.28839,10.28839,0,0,1,10.27672-10.27678H686.68589a10.28841,10.28841,0,0,1,10.27678,10.27678v62.61613A10.28841,10.28841,0,0,1,686.68589,239.2391Z" transform="translate(-147.74411 -156.06942)" fill="#e6e6e6" />
  <path d="M646.29275,231.17371H592.16726a9.63563,9.63563,0,0,1-9.625-9.62451v-47.79a9.63563,9.63563,0,0,1,9.625-9.62451h87.37256a9.63521,9.63521,0,0,1,9.62451,9.62451v14.54346A42.91981,42.91981,0,0,1,646.29275,231.17371Z" transform="translate(-147.74411 -156.06942)" fill="#fff" />
  <path d="M670.82362,190.3034H600.8831a2.281,2.281,0,1,1,0-4.562h69.94052a2.281,2.281,0,1,1,0,4.562Z" transform="translate(-147.74411 -156.06942)" fill="#1578a9" />
  <path d="M611.82362,199.31674H600.8831a2.28111,2.28111,0,0,1,0-4.56221h10.94052a2.28111,2.28111,0,0,1,0,4.56221Z" transform="translate(-147.74411 -156.06942)" fill="#1578a9" />
  <path d="M631.20063,208.33007H600.8831a2.2811,2.2811,0,0,1,0-4.56221h30.31753a2.28111,2.28111,0,0,1,0,4.56221Z" transform="translate(-147.74411 -156.06942)" fill="#1578a9" />
  <circle cx="568.56211" cy="238.72495" r="21.50616" transform="translate(-82.08946 439.49802) rotate(-58.13426)" fill="#3f3d56" />
  <path d="M282.07245,406.49912A94.03112,94.03112,0,0,1,457.9704,339.961l-1.8711.708a92.03055,92.03055,0,1,0-172.15576,65.12207Z" transform="translate(-147.74411 -156.06942)" fill="#3f3d56" />
  <path d="M364.32878,313.36151H332.52507a4.50049,4.50049,0,0,1-3.53466-1.70263,4.40807,4.40807,0,0,1-.8628-3.74561,86.51423,86.51423,0,0,0-.49707-40.30908,4.4618,4.4618,0,0,1,2.05762-4.9375c11.52051-6.70605,23.82324-6.50147,36.56543.60986a4.5125,4.5125,0,0,1,2.293,3.23438,141.56107,141.56107,0,0,1,.24267,42.979A4.49087,4.49087,0,0,1,364.32878,313.36151Z" transform="translate(-147.74411 -156.06942)" fill="#1578a9" />
  <path d="M349.46882,282.5127H338.5283a2.28111,2.28111,0,0,1,0-4.56221h10.94052a2.28111,2.28111,0,0,1,0,4.56221Z" transform="translate(-147.74411 -156.06942)" fill="#fff" />
  <path d="M362.84583,291.526H338.5283a2.2811,2.2811,0,0,1,0-4.56221h24.31753a2.28111,2.28111,0,0,1,0,4.56221Z" transform="translate(-147.74411 -156.06942)" fill="#fff" />
  <path d="M259.68589,405.2391H158.02083a10.28839,10.28839,0,0,1-10.27672-10.27678V332.3462a10.28839,10.28839,0,0,1,10.27672-10.27678H259.68589a10.28841,10.28841,0,0,1,10.27678,10.27678v62.61613A10.28841,10.28841,0,0,1,259.68589,405.2391Z" transform="translate(-147.74411 -156.06942)" fill="#e6e6e6" />
  <path d="M219.29275,397.17371H165.16726a9.63563,9.63563,0,0,1-9.625-9.62451v-47.79a9.63563,9.63563,0,0,1,9.625-9.62451h87.37256a9.63521,9.63521,0,0,1,9.62451,9.62451v14.54346A42.91981,42.91981,0,0,1,219.29275,397.17371Z" transform="translate(-147.74411 -156.06942)" fill="#fff" />
  <path d="M243.82362,356.3034H173.8831a2.281,2.281,0,1,1,0-4.562h69.94052a2.281,2.281,0,1,1,0,4.562Z" transform="translate(-147.74411 -156.06942)" fill="#1578a9" />
  <path d="M184.82362,365.31674H173.8831a2.28111,2.28111,0,0,1,0-4.56221h10.94052a2.28111,2.28111,0,0,1,0,4.56221Z" transform="translate(-147.74411 -156.06942)" fill="#1578a9" />
  <path d="M204.20063,374.33007H173.8831a2.28111,2.28111,0,0,1,0-4.56221h30.31753a2.2811,2.2811,0,0,1,0,4.56221Z" transform="translate(-147.74411 -156.06942)" fill="#1578a9" />
  <circle cx="281.56211" cy="402.72495" r="21.50616" transform="translate(-356.85653 273.17189) rotate(-58.13426)" fill="#3f3d56" />
  <path d="M473.32878,373.36151H441.52507a4.50049,4.50049,0,0,1-3.53466-1.70263,4.40807,4.40807,0,0,1-.8628-3.74561,86.52041,86.52041,0,0,0-.47949-40.24023,4.4894,4.4894,0,0,1,2.124-4.978c15.44971-8.84375,27.68311-8.59961,37.39991.74658a4.4406,4.4406,0,0,1,1.2788,2.47608,141.55617,141.55617,0,0,1,.33838,43.57226A4.49087,4.49087,0,0,1,473.32878,373.36151Z" transform="translate(-147.74411 -156.06942)" fill="#ff6584" />
  <path d="M460.46882,343.5127H449.5283a2.28111,2.28111,0,0,1,0-4.56221h10.94052a2.28111,2.28111,0,0,1,0,4.56221Z" transform="translate(-147.74411 -156.06942)" fill="#fff" />
  <path d="M473.84583,352.526H449.5283a2.2811,2.2811,0,0,1,0-4.56221h24.31753a2.28111,2.28111,0,0,1,0,4.56221Z" transform="translate(-147.74411 -156.06942)" fill="#fff" />
</svg>