<svg xmlns="http://www.w3.org/2000/svg" xmlns:xlink="http://www.w3.org/1999/xlink" data-name="Layer 1" width="750.77499" height="612.05507" viewBox="100 100 750.77499 612.05507">
  <path d="M305.54921,740.95353l9.44673,7.31619,36.72906,6.37279L392.54921,653.1622s25-78.20867,95-62.20867l225-4s69.08338-7.08025,80.5,25.5c2.16244,6.17108,60.5,142.5,60.5,142.5l40.90158-5.77292-4.90158-116.22708-97.14567-225.5-168.85433-10.5433-174,12.0433Z" transform="translate(-141.6125 -143.97246)" fill="#3f3d56" />
  <circle cx="350.93671" cy="388.98107" r="65" fill="#2f2e41" />
  <circle cx="568.93671" cy="388.98107" r="65" fill="#2f2e41" />
  <path d="M416.54921,319.95353l26.7634-5.248s201.50432-28.752,328.87046,5.248l-9.63386,27-337-2Z" transform="translate(-141.6125 -143.97246)" fill="#e6e6e6" />
  <path d="M688.23818,459.45353H517.22939c-20.76367,0-38.709-14.37744-42.66992-34.18652l-18.71485-93.604a14.99081,14.99081,0,0,1,2.59033-11.82422,15.93792,15.93792,0,0,1,10.94874-6.43213c90.19238-11.19531,179.50195-11.21436,265.45019-.05811a15.69914,15.69914,0,0,1,10.79,6.35157,15.01285,15.01285,0,0,1,2.67139,11.67236l-17.27588,93.31689C727.29042,444.83293,709.29824,459.45353,688.23818,459.45353Z" transform="translate(-141.6125 -143.97246)" fill="#4415a9" />
  <path d="M340.4789,335.19279l.74463-13.395a12.9355,12.9355,0,0,1,6.14892-10.30615c10.79737-6.624,39.92334-21.208,77.09229-13.563a12.97676,12.97676,0,0,1,10.2124,10.84619l.99512,6.96973Z" transform="translate(-141.6125 -143.97246)" fill="#3f3d56" />
  <path d="M864.61953,335.19279l-95.19336-19.44824,1.59912-11.19727A6.69181,6.69181,0,0,1,776.036,298.978c42.86523-10.75733,75.67578,8.34619,84.71142,14.45752a6.76148,6.76148,0,0,1,2.95166,5.19726Z" transform="translate(-141.6125 -143.97246)" fill="#3f3d56" />
  <path d="M310.2538,749.68889a11.99528,11.99528,0,0,1-6.4917-1.82618c-25.48877-14.88379-41.37939-42.15918-47.19433-81.04589-4.80323-32.1211-2.79737-72.43848,5.96142-119.833C278.058,462.957,310.60488,378.96769,323.87734,346.75773a29.37562,29.37562,0,0,1,20.0708-17.28418c27.36181-6.73,75.12695-18.02,87.60107-18.02,17.09473,0,26.34424,16.09229,26.436,16.25489l.05127.13281,15.01269,65.10059v.93945c8.28223,28.02246,2.12842,48.26513-4.49707,60.313-7.19092,13.07714-16.4956,19.606-16.58838,19.67041-14.61084,11.123-38.415,46.95605-62.10547,93.50293-24.61865,48.37207-42.86865,96.10156-48.81787,127.67871-7.28173,38.64941-17.95605,50.48144-25.62841,53.60058A13.602,13.602,0,0,1,310.2538,749.68889Z" transform="translate(-141.6125 -143.97246)" fill="#e6e6e6" />
  <path d="M682.601,451.45353H521.02089a41.1678,41.1678,0,0,1-40.34472-33.2622l-17.68311-91.03614a15.01974,15.01974,0,0,1,12.81445-17.76855c85.22412-10.88818,169.61377-10.90674,250.8252-.05664a15.00551,15.00551,0,0,1,12.74121,17.543L723.05068,417.6298A41.06489,41.06489,0,0,1,682.601,451.45353Z" transform="translate(-141.6125 -143.97246)" fill="#e6e6e6" />
  <path d="M894.848,749.68986a13.60892,13.60892,0,0,1-5.16162-1.043c-7.67236-3.11914-18.34668-14.95117-25.62842-53.60058-5.94922-31.57715-24.19922-79.30664-48.81787-127.67871-23.69043-46.54688-47.49463-82.37989-62.12353-93.51612-.07471-.05127-9.3794-6.58008-16.57032-19.65722-6.62549-12.04786-12.77929-32.29053-4.49707-60.313l.0127-1.05176L747.078,327.77092l.03516-.0625c.09179-.1626,9.34131-16.25489,26.436-16.25489,12.47412,0,60.23926,11.29,87.60108,18.02a29.37993,29.37993,0,0,1,20.0708,17.28418h0c13.27246,32.21,45.81933,116.19922,61.34814,200.22608,8.75879,47.39453,10.76465,87.71191,5.96143,119.833-5.81494,38.88671-21.70557,66.1621-47.22949,81.06835A11.948,11.948,0,0,1,894.848,749.68986Z" transform="translate(-141.6125 -143.97246)" fill="#e6e6e6" />
  <circle cx="350.93671" cy="377.98107" r="39" fill="#3f3d56" />
  <circle cx="350.93671" cy="377.98107" r="26" fill="#2f2e41" />
  <circle cx="568.93671" cy="377.98107" r="39" fill="#3f3d56" />
  <circle cx="568.93671" cy="377.98107" r="26" fill="#2f2e41" />
  <circle cx="435.93671" cy="327.98107" r="3" fill="#2f2e41" />
  <circle cx="448.93671" cy="327.98107" r="3" fill="#2f2e41" />
  <circle cx="442.93671" cy="338.98107" r="3" fill="#2f2e41" />
  <circle cx="454.93671" cy="338.98107" r="3" fill="#2f2e41" />
  <circle cx="466.93671" cy="338.98107" r="3" fill="#2f2e41" />
  <circle cx="478.93671" cy="338.98107" r="3" fill="#2f2e41" />
  <circle cx="461.93671" cy="327.98107" r="3" fill="#2f2e41" />
  <circle cx="474.93671" cy="327.98107" r="3" fill="#2f2e41" />
  <circle cx="487.93671" cy="327.98107" r="3" fill="#2f2e41" />
  <path d="M615.54921,564.45353h-26a4.5,4.5,0,1,1,0-9h26a4.5,4.5,0,0,1,0,9Z" transform="translate(-141.6125 -143.97246)" fill="#2f2e41" />
  <path d="M443.393,368.83976a7.46431,7.46431,0,0,1-7.24414-5.74951l-3.9873-16.92822a7.45695,7.45695,0,0,1,14.5166-3.41943l3.9873,16.92822a7.46695,7.46695,0,0,1-7.27246,9.16894Z" transform="translate(-141.6125 -143.97246)" fill="#3f3d56" />
  <path d="M762.70546,367.83976a7.467,7.467,0,0,1-7.27246-9.16894l3.98731-16.92822a7.45695,7.45695,0,0,1,14.5166,3.41943l-3.98731,16.92822a7.46431,7.46431,0,0,1-7.24414,5.74951Z" transform="translate(-141.6125 -143.97246)" fill="#3f3d56" />
  <path d="M388.37783,418.80705a11.94249,11.94249,0,0,1-6.85791-2.16357l-8.36963-5.85889a11.96821,11.96821,0,0,1-5.10108-9.79736V383.04387a13.60583,13.60583,0,0,1,13.59033-13.59034h12.81934a13.60583,13.60583,0,0,1,13.59033,13.59034v18.11962a12.00227,12.00227,0,0,1-4.86523,9.627l-7.7124,5.6831A11.94157,11.94157,0,0,1,388.37783,418.80705Z" transform="translate(-141.6125 -143.97246)" fill="#3f3d56" />
  <path d="M394.45888,484.45353H381.63954a13.60583,13.60583,0,0,1-13.59033-13.59033V452.91984a11.96821,11.96821,0,0,1,5.10108-9.79736l8.36963-5.85889a11.95,11.95,0,0,1,13.95166.16992l7.7124,5.68311a12.00226,12.00226,0,0,1,4.86523,9.62695V470.8632A13.60583,13.60583,0,0,1,394.45888,484.45353Z" transform="translate(-141.6125 -143.97246)" fill="#3f3d56" />
  <path d="M434.45888,446.95353H416.51552a11.9682,11.9682,0,0,1-9.79736-5.10107l-5.85889-8.36963a11.94918,11.94918,0,0,1,.16992-13.95166l5.68311-7.7124a12.00224,12.00224,0,0,1,9.62695-4.86524h18.11963a13.60583,13.60583,0,0,1,13.59033,13.59034V433.3632A13.60583,13.60583,0,0,1,434.45888,446.95353Z" transform="translate(-141.6125 -143.97246)" fill="#3f3d56" />
  <path d="M358.5829,446.95353H340.63954a13.60583,13.60583,0,0,1-13.59033-13.59033V420.54387a13.60583,13.60583,0,0,1,13.59033-13.59034h18.11963a12.00226,12.00226,0,0,1,9.627,4.86524l5.6831,7.7124a11.94918,11.94918,0,0,1,.16992,13.95166l-5.85888,8.36963A11.9682,11.9682,0,0,1,358.5829,446.95353Z" transform="translate(-141.6125 -143.97246)" fill="#3f3d56" />
  <circle cx="675.93671" cy="231.98107" r="23" fill="#3f3d56" />
  <circle cx="726.93671" cy="284.98107" r="23" fill="#3f3d56" />
  <circle cx="675.93671" cy="334.98107" r="23" fill="#3f3d56" />
  <circle cx="624.93671" cy="283.98107" r="23" fill="#3f3d56" />
  <path d="M868.54921,443.95353a15,15,0,1,1,15-15A15.017,15.017,0,0,1,868.54921,443.95353Zm0-28a13,13,0,1,0,13,13A13.01443,13.01443,0,0,0,868.54921,415.95353Z" transform="translate(-141.6125 -143.97246)" fill="#e6e6e6" />
  <path d="M833.62148,387.1132l-30.14453-.42627,15.44189-25.89306Zm-26.65235-2.37744,23.2168.32861-11.32373-20.2705Z" transform="translate(-141.6125 -143.97246)" fill="#e6e6e6" />
  <path d="M778.54921,439.95353h-24v-24h24Zm-22-2h20v-20h-20Z" transform="translate(-141.6125 -143.97246)" fill="#e6e6e6" />
  <polygon points="688.348 345.307 677.353 334.333 687.049 324.655 685.635 323.239 675.937 332.919 666.238 323.239 664.825 324.655 674.521 334.333 663.526 345.307 664.939 346.723 675.937 335.746 686.935 346.723 688.348 345.307" fill="#e6e6e6" />
</svg>