<svg xmlns="http://www.w3.org/2000/svg" xmlns:xlink="http://www.w3.org/1999/xlink" data-name="Layer 1" width="826.38189" height="505.13" viewBox="0 0 826.38189 505.13">
  <polygon points="494.22 150.5 494.22 282.58 189.16 282.58 189.16 352.71 108.51 352.71 108.51 150.5 494.22 150.5" fill="#fff" />
  <path d="M291.80906,344.435v209.22h84.16015v-7.01H298.81906V351.445h378.71v128.57h7.01V344.435Z" transform="translate(-186.80906 -197.435)" fill="#e5e5e5" />
  <rect x="189.35419" y="225.34781" width="244.49561" height="8.63082" fill="#e5e5e5" />
  <rect x="189.35419" y="247.78794" width="244.49561" height="8.63082" fill="#e5e5e5" />
  <rect x="189.35419" y="270.22806" width="244.49561" height="8.63082" fill="#e5e5e5" />
  <circle cx="174.51342" cy="229.98892" r="5.63266" fill="#e5e5e5" />
  <polygon points="389.22 3.5 389.22 135.58 84.16 135.58 84.16 205.71 3.51 205.71 3.51 3.5 389.22 3.5" fill="#fff" />
  <path d="M186.80906,197.435v209.22h84.16015v-7.01H193.81906v-195.2h378.71v128.57h7.01V197.435Z" transform="translate(-186.80906 -197.435)" fill="#f1f1f1" />
  <rect x="84.35419" y="78.34781" width="244.49561" height="8.63082" fill="#f1f1f1" />
  <rect x="84.35419" y="100.78794" width="244.49561" height="8.63082" fill="#f1f1f1" />
  <rect x="84.35419" y="123.22806" width="244.49561" height="8.63082" fill="#f1f1f1" />
  <circle cx="69.51342" cy="82.98892" r="5.63266" fill="#f1f1f1" />
  <rect x="209.77619" y="299.41412" width="385.71729" height="202.20937" fill="#fff" />
  <path d="M785.80906,702.565H393.07873V493.3426H785.80906Zm-385.71729-7.013H778.796V500.35564H400.09177Z" transform="translate(-186.80906 -197.435)" fill="#cbcbcb" />
  <rect x="290.20038" y="374.57656" width="244.49561" height="8.63082" fill="#a99315" />
  <rect x="290.20038" y="397.01669" width="244.49561" height="8.63082" fill="#a99315" />
  <rect x="290.20038" y="419.45681" width="244.49561" height="8.63082" fill="#a99315" />
  <circle cx="275.35962" cy="379.21767" r="5.63266" fill="#a99315" />
</svg>