<svg xmlns="http://www.w3.org/2000/svg" xmlns:xlink="http://www.w3.org/1999/xlink" data-name="Layer 1" width="651.25395" height="531.88962" viewBox="0 0 651.25395 531.88962">
  <path d="M888.2874,589.95491h-238a7.00786,7.00786,0,0,1-7-7v-310a7.00787,7.00787,0,0,1,7-7h238a7.00786,7.00786,0,0,1,7,7v310A7.00785,7.00785,0,0,1,888.2874,589.95491Zm-238-322a5.00589,5.00589,0,0,0-5,5v310a5.00589,5.00589,0,0,0,5,5h238a5.00588,5.00588,0,0,0,5-5v-310a5.00589,5.00589,0,0,0-5-5Z" transform="translate(-274.37302 -184.05519)" fill="#e6e6e6" />
  <path d="M815.5,401.75412h-101a7.00817,7.00817,0,0,1-7-7v-79a7.00787,7.00787,0,0,1,7-7h101a7.00787,7.00787,0,0,1,7,7v79A7.00817,7.00817,0,0,1,815.5,401.75412Z" transform="translate(-274.37302 -184.05519)" fill="#e6e6e6" />
  <path d="M815.2874,533.95491h-101a7.00818,7.00818,0,0,1-7-7v-79a7.00819,7.00819,0,0,1,7-7h101a7.00818,7.00818,0,0,1,7,7v79A7.00818,7.00818,0,0,1,815.2874,533.95491Zm-101-91a5.00589,5.00589,0,0,0-5,5v79a5.00589,5.00589,0,0,0,5,5h101a5.00588,5.00588,0,0,0,5-5v-79a5.00589,5.00589,0,0,0-5-5Z" transform="translate(-274.37302 -184.05519)" fill="#3f3d56" />
  <path d="M843.2874,555.95491h-101a7.00818,7.00818,0,0,1-7-7v-79a7.00819,7.00819,0,0,1,7-7h101a7.00818,7.00818,0,0,1,7,7v79A7.00818,7.00818,0,0,1,843.2874,555.95491Z" transform="translate(-274.37302 -184.05519)" fill="#4415a9" />
  <path d="M804.11852,532.824h-50.705a1.038,1.038,0,0,1-.18948-.015l23.98123-41.53876a1.67907,1.67907,0,0,1,2.92285,0L796.22237,519.146l.77106,1.33386Z" transform="translate(-274.37302 -184.05519)" fill="#fff" />
  <polygon points="529.745 348.769 512.434 348.769 520.932 336.425 521.544 335.536 521.849 335.091 522.62 336.425 529.745 348.769" opacity="0.2" style="isolation:isolate" />
  <path d="M832.3507,532.824H788.49507l8.49836-12.34418.6116-.88922,11.07416-16.08685a2.24089,2.24089,0,0,1,3.32617-.19885,2.00551,2.00551,0,0,1,.15948.19885Z" transform="translate(-274.37302 -184.05519)" fill="#fff" />
  <circle cx="555.9242" cy="299.54204" r="7.51151" fill="#fff" />
  <path d="M546.92126,589.86436h-238a7.00818,7.00818,0,0,1-7-7v-79a7.00818,7.00818,0,0,1,7-7h238a7.0085,7.0085,0,0,1,7,7v79A7.00849,7.00849,0,0,1,546.92126,589.86436Z" transform="translate(-274.37302 -184.05519)" fill="#e6e6e6" />
  <path d="M545.92126,476.86436h-238a7.00818,7.00818,0,0,1-7-7v-193a7.00785,7.00785,0,0,1,7-7h238a7.00818,7.00818,0,0,1,7,7v193A7.00852,7.00852,0,0,1,545.92126,476.86436Zm-238-205a5.00589,5.00589,0,0,0-5,5v193a5.00588,5.00588,0,0,0,5,5h238a5.00589,5.00589,0,0,0,5-5v-193a5.00589,5.00589,0,0,0-5-5Z" transform="translate(-274.37302 -184.05519)" fill="#3f3d56" />
  <path d="M584.92126,511.86436h-238a7.00849,7.00849,0,0,1-7-7v-193a7.00818,7.00818,0,0,1,7-7h238a7.00818,7.00818,0,0,1,7,7v193A7.00849,7.00849,0,0,1,584.92126,511.86436Z" transform="translate(-274.37302 -184.05519)" fill="#4415a9" />
  <path d="M493.07434,464.36424H371.5689a2.47923,2.47923,0,0,1-.454-.036l57.4665-99.54022a4.02361,4.02361,0,0,1,7.00408,0l38.5672,66.79919,1.84766,3.19635Z" transform="translate(-274.37302 -184.05519)" fill="#fff" />
  <polygon points="218.701 280.309 177.216 280.309 197.581 250.728 199.047 248.597 199.78 247.532 201.628 250.728 218.701 280.309" opacity="0.2" style="isolation:isolate" />
  <path d="M560.72766,464.36424H455.63543l20.36481-29.58066,1.46551-2.13089L504.003,394.1034a5.36975,5.36975,0,0,1,7.97058-.4765,4.79666,4.79666,0,0,1,.38214.4765Z" transform="translate(-274.37302 -184.05519)" fill="#fff" />
  <circle cx="279.14791" cy="160.30906" r="18" fill="#fff" />
</svg>